<svg width="76" height="76" viewBox="0 0 76 76" fill="none" xmlns="http://www.w3.org/2000/svg">
<circle cx="38" cy="38" r="38" fill="#4CABEB"/>
<path d="M50.1652 54.7698H50.3712C51.3353 54.7698 52.2599 54.3868 52.9417 53.705C53.6234 53.0233 54.0064 52.0987 54.0064 51.1345V44.7366C54.0098 44.2554 53.8699 43.7841 53.6044 43.3827C53.339 42.9813 52.9601 42.668 52.516 42.4828L47.9477 40.653C47.5091 40.4685 47.0258 40.4173 46.5582 40.5056C46.0906 40.594 45.6594 40.818 45.3183 41.1499L42.6888 43.7551C40.3988 43.3459 38.2897 42.2431 36.647 40.596C35.0042 38.9489 33.907 36.837 33.5038 34.5459L36.0848 31.9407C36.4204 31.6046 36.6498 31.1774 36.7446 30.7121C36.8393 30.2468 36.7953 29.7638 36.618 29.3233L34.7762 24.7914C34.5966 24.3405 34.2857 23.9539 33.8839 23.6817C33.482 23.4095 33.0077 23.2642 32.5223 23.2646H25.8457C25.3688 23.3014 24.904 23.4319 24.4776 23.6486C24.0513 23.8653 23.672 24.164 23.3613 24.5276C23.0506 24.8912 22.8147 25.3125 22.6671 25.7674C22.5196 26.2223 22.4632 26.7018 22.5013 27.1786C22.9739 33.3099 26.3546 53.4005 50.1652 54.7698Z" fill="white"/>
</svg>
