<svg width="32" height="34" viewBox="0 0 32 34" fill="none" xmlns="http://www.w3.org/2000/svg">
<path d="M15.1578 0.00494799C12.4521 0.0378896 6.635 0.48632 3.3814 3.49675C0.961214 5.9153 0.116205 9.49106 0.017164 13.9127C-0.0650189 18.3183 -0.16406 26.592 7.74341 28.8448V32.276C7.74341 32.276 7.69389 33.6489 8.59369 33.9305C9.70211 34.2844 10.3332 33.2281 11.3869 32.0932L13.3519 29.8521C18.7622 30.3059 22.9062 29.2602 23.3835 29.1051C24.4813 28.7512 30.6651 27.9543 31.6755 19.6796C32.7123 11.1339 31.1708 5.74953 28.3882 3.31398H28.3713C27.5316 2.53401 24.1568 0.053829 16.6171 0.0262006C16.6171 0.0262006 16.0576 -0.0120541 15.1578 0.00388536V0.00494799ZM15.2505 2.40756C16.0186 2.40224 16.4854 2.43519 16.4854 2.43519C22.8672 2.45219 25.9132 4.38936 26.6318 5.04182C28.9751 7.06719 30.1825 11.9213 29.2985 19.0558C28.4588 25.9735 23.4435 26.4113 22.5153 26.7099C22.1202 26.8374 18.4704 27.7449 13.8724 27.4463C13.8724 27.4463 10.4481 31.614 9.37759 32.6872C9.20795 32.8753 9.00987 32.9306 8.88344 32.9029C8.70221 32.8583 8.64742 32.632 8.65796 32.3217L8.69062 26.627C1.98429 24.7568 2.3794 17.6999 2.45104 14.0136C2.53323 10.3273 3.21914 7.3116 5.26107 5.26922C8.00998 2.76248 12.9494 2.42456 15.2484 2.40756H15.2505ZM15.7562 6.09276C15.7011 6.0922 15.6463 6.10266 15.5951 6.12355C15.544 6.14443 15.4974 6.17532 15.4581 6.21444C15.4188 6.25355 15.3876 6.30012 15.3663 6.35146C15.3449 6.4028 15.3339 6.45789 15.3337 6.51356C15.3337 6.75159 15.5255 6.93968 15.7562 6.93968C16.8009 6.91964 17.8392 7.10839 18.8112 7.49504C19.7832 7.88168 20.6697 8.45858 21.4195 9.19246C22.9504 10.6918 23.6964 12.7066 23.7248 15.3408C23.7248 15.5736 23.9113 15.767 24.1473 15.767V15.75C24.2586 15.7502 24.3654 15.7062 24.4445 15.6273C24.5237 15.5485 24.5687 15.4413 24.5698 15.3292C24.621 14.0892 24.4216 12.8517 23.9838 11.6919C23.5461 10.5321 22.879 9.47422 22.0232 8.58251C20.3553 6.93861 18.2418 6.0917 15.7562 6.0917V6.09276ZM10.2026 7.06719C9.90435 7.02325 9.60018 7.08362 9.34071 7.23828H9.31858C8.71619 7.59441 8.17352 8.04452 7.71075 8.57188C7.32618 9.02031 7.11756 9.47405 7.06277 9.91079C7.03011 10.1711 7.05223 10.4315 7.12915 10.6801L7.15654 10.6971C7.58958 11.9808 8.15538 13.2156 8.84656 14.3781C9.7369 16.0113 10.8326 17.5218 12.1065 18.872L12.1444 18.9272L12.2045 18.9718L12.2424 19.0165L12.2867 19.0547C13.6303 20.3433 15.1315 21.4535 16.754 22.3585C18.6084 23.3765 19.7337 23.8578 20.4091 24.0576V24.0682C20.6071 24.1288 20.7873 24.1564 20.9685 24.1564C21.5441 24.1139 22.089 23.8782 22.5163 23.487C23.0368 23.0201 23.4782 22.4706 23.8228 21.8601V21.8495C24.1463 21.2353 24.0367 20.654 23.5699 20.2608C22.6352 19.4367 21.6244 18.7048 20.5513 18.075C19.8327 17.6818 19.1026 17.9198 18.8065 18.3183L18.1754 19.1206C17.8519 19.5191 17.264 19.4638 17.264 19.4638L17.2471 19.4745C12.863 18.3449 11.6935 13.868 11.6935 13.868C11.6935 13.868 11.6387 13.2591 12.0443 12.9489L12.8345 12.307C13.2128 11.9967 13.4762 11.2614 13.0706 10.5356C12.4504 9.4519 11.7262 8.4322 10.9085 7.49118C10.7297 7.26934 10.4789 7.1184 10.2005 7.06507L10.2026 7.06719ZM16.4854 8.3296C15.9259 8.3296 15.9259 9.18183 16.4906 9.18183C17.1863 9.19321 17.873 9.34275 18.5113 9.6219C19.1497 9.90105 19.7272 10.3043 20.211 10.8087C20.6523 11.2997 20.9914 11.8749 21.2082 12.5005C21.425 13.126 21.5151 13.7891 21.4732 14.4504C21.4752 14.5623 21.5205 14.669 21.5994 14.7476C21.6784 14.8263 21.7847 14.8706 21.8957 14.8712L21.9126 14.8935C22.0244 14.8926 22.1314 14.8475 22.2104 14.7677C22.2895 14.688 22.3343 14.5801 22.3351 14.4674C22.373 12.7788 21.8525 11.3623 20.8316 10.2275C19.8053 9.09257 18.3735 8.45605 16.5454 8.3296H16.4854ZM17.1776 10.6206C16.6013 10.6036 16.5791 11.4729 17.1502 11.4899C18.5389 11.5621 19.2132 12.2698 19.3017 13.7256C19.3036 13.8361 19.3484 13.9415 19.4263 14.0192C19.5043 14.0968 19.6094 14.1406 19.7189 14.1411H19.7358C19.7921 14.1387 19.8474 14.125 19.8985 14.1007C19.9495 14.0765 19.9952 14.0423 20.033 14C20.0707 13.9578 20.0998 13.9084 20.1184 13.8547C20.137 13.801 20.1449 13.7442 20.1414 13.6874C20.0424 11.7895 19.0162 10.7205 17.1944 10.6217H17.1776V10.6206Z" fill="#0D2731"/>
</svg>
