<svg width="906" height="278" viewBox="0 0 906 278" fill="none" xmlns="http://www.w3.org/2000/svg">
<path d="M883.5 63.0003C883.5 86.7529 905.5 278 905.5 278H123C123 278 -139 207 104 14.8917C104 14.8917 190.095 57.2942 249.999 50.5001C344.499 39.7824 350.5 -4.9999 488 14.8917C524 20.0997 553 37.5868 600.5 35.8921C648 34.1973 690 7.89191 738 0.892058C786 -6.10779 883.5 34.625 883.5 63.0003Z" fill="#0D2731"/>
<path d="M883.5 63.0003C883.5 86.7529 905.5 278 905.5 278H123C123 278 -139 207 104 14.8917C104 14.8917 190.095 57.2942 249.999 50.5001C344.499 39.7824 350.5 -4.9999 488 14.8917C524 20.0997 553 37.5868 600.5 35.8921C648 34.1973 690 7.89191 738 0.892058C786 -6.10779 883.5 34.625 883.5 63.0003Z" fill="url(#paint0_linear_531_851)"/>
<defs>
<linearGradient id="paint0_linear_531_851" x1="867" y1="197.743" x2="122.903" y2="197.743" gradientUnits="userSpaceOnUse">
<stop stop-color="#0D2731"/>
<stop offset="1" stop-color="#88AEDB"/>
</linearGradient>
</defs>
</svg>
