<svg width="926" height="328" viewBox="0 0 926 328" fill="none" xmlns="http://www.w3.org/2000/svg">
<path d="M925.989 53.2966C925.434 63.2703 925.989 288.45 925.989 288.45C781.341 352.492 683.295 245.63 479.335 306.462C275.376 367.294 0 279.944 0 279.944C0 279.944 0 216.754 0.000196243 216.903C0.000454821 217.053 0 29.7707 0 29.7707C17.6312 24.5195 39.4361 21.2257 66.4021 20.4006C125.941 18.5788 164.353 55.198 246.939 46.7913C329.525 38.3846 366.764 8.6177 448.469 0.761892C530.174 -7.09392 597.195 48.2741 683.295 53.2967C747.749 57.0566 792.235 29.7707 845.051 20.4006C891.491 20.4006 926.721 40.1334 925.989 53.2966Z" fill="#0D2731"/>
<path d="M925.989 53.2966C925.434 63.2703 925.989 288.45 925.989 288.45C781.341 352.492 683.295 245.63 479.335 306.462C275.376 367.294 0 279.944 0 279.944C0 279.944 0 216.754 0.000196243 216.903C0.000454821 217.053 0 29.7707 0 29.7707C17.6312 24.5195 39.4361 21.2257 66.4021 20.4006C125.941 18.5788 164.353 55.198 246.939 46.7913C329.525 38.3846 366.764 8.6177 448.469 0.761892C530.174 -7.09392 597.195 48.2741 683.295 53.2967C747.749 57.0566 792.235 29.7707 845.051 20.4006C891.491 20.4006 926.721 40.1334 925.989 53.2966Z" fill="url(#paint0_linear_531_825)"/>
<defs>
<linearGradient id="paint0_linear_531_825" x1="926" y1="233.308" x2="-0.120725" y2="233.308" gradientUnits="userSpaceOnUse">
<stop stop-color="#0D2731"/>
<stop offset="1" stop-color="#88AEDB"/>
</linearGradient>
</defs>
</svg>
