<svg width="766" height="328" viewBox="0 0 766 328" fill="none" xmlns="http://www.w3.org/2000/svg">
<path d="M765 53.2618C764.542 63.229 765 288.262 765 288.262C645.5 352.262 564.5 245.47 396 306.262C227.5 367.054 0 279.762 0 279.762C0 279.762 0 216.613 0.000162125 216.762C0.000375748 216.911 0 29.7513 0 29.7513C14.5659 24.5035 32.5799 21.2119 54.8577 20.3873C104.045 18.5667 135.779 55.162 204.007 46.7608C272.235 38.3596 303 8.61208 370.5 0.761395C438 -7.08929 493.369 48.2426 564.5 53.2619C617.748 57.0193 654.5 29.7513 698.134 20.3873C736.5 20.3873 765.605 40.1072 765 53.2618Z" fill="#0D2731"/>
<path d="M765 53.2618C764.542 63.229 765 288.262 765 288.262C645.5 352.262 564.5 245.47 396 306.262C227.5 367.054 0 279.762 0 279.762C0 279.762 0 216.613 0.000162125 216.762C0.000375748 216.911 0 29.7513 0 29.7513C14.5659 24.5035 32.5799 21.2119 54.8577 20.3873C104.045 18.5667 135.779 55.162 204.007 46.7608C272.235 38.3596 303 8.61208 370.5 0.761395C438 -7.08929 493.369 48.2426 564.5 53.2619C617.748 57.0193 654.5 29.7513 698.134 20.3873C736.5 20.3873 765.605 40.1072 765 53.2618Z" fill="url(#paint0_linear_531_825)"/>
<defs>
<linearGradient id="paint0_linear_531_825" x1="765.01" y1="233.156" x2="-0.0997362" y2="233.156" gradientUnits="userSpaceOnUse">
<stop stop-color="#0D2731"/>
<stop offset="1" stop-color="#88AEDB"/>
</linearGradient>
</defs>
</svg>
