<svg width="744" height="278" viewBox="0 0 744 278" fill="none" xmlns="http://www.w3.org/2000/svg">
<path d="M744 57.892C744 81.6446 744 278 744 278H0C0 278 0 76.4714 0 14.8916C0 14.8916 67.0955 57.2941 127 50.5C221.5 39.7823 227.5 -5 365 14.8916C392.361 14.8916 430 37.5867 477.5 35.892C525 34.1972 567 7.89181 615 0.891961C663 -6.10789 744 29.5167 744 57.892Z" fill="#0D2731"/>
<path d="M744 57.892C744 81.6446 744 278 744 278H0C0 278 0 76.4714 0 14.8916C0 14.8916 67.0955 57.2941 127 50.5C221.5 39.7823 227.5 -5 365 14.8916C392.361 14.8916 430 37.5867 477.5 35.892C525 34.1972 567 7.89181 615 0.891961C663 -6.10789 744 29.5167 744 57.892Z" fill="url(#paint0_linear_531_823)"/>
<defs>
<linearGradient id="paint0_linear_531_823" x1="744" y1="197.743" x2="-0.0969971" y2="197.743" gradientUnits="userSpaceOnUse">
<stop stop-color="#0D2731"/>
<stop offset="1" stop-color="#88AEDB"/>
</linearGradient>
</defs>
</svg>
