<svg width="766" height="339" viewBox="0 0 766 339" fill="none" xmlns="http://www.w3.org/2000/svg">
<path d="M765.505 52.2733C765.505 80.1002 765.505 338.273 765.505 338.273H0.505008V204.273C0.505008 204.273 0.505008 91.5934 0.505008 64.2731C0.505008 64.2731 -14.495 9.22016 119.005 20.7205C178.505 31.2731 174.505 45.2203 242.505 45.2204C310.505 45.2205 402.505 -11.9497 486.005 2.27315C569.505 16.496 604.576 52.2733 650.505 64.2731C719.569 82.3176 765.505 52.2733 765.505 52.2733Z" fill="#0D2731"/>
<path d="M765.505 52.2733C765.505 80.1002 765.505 338.273 765.505 338.273H0.505008V204.273C0.505008 204.273 0.505008 91.5934 0.505008 64.2731C0.505008 64.2731 -14.495 9.22016 119.005 20.7205C178.505 31.2731 174.505 45.2203 242.505 45.2204C310.505 45.2205 402.505 -11.9497 486.005 2.27315C569.505 16.496 604.576 52.2733 650.505 64.2731C719.569 82.3176 765.505 52.2733 765.505 52.2733Z" fill="url(#paint0_linear_531_821)"/>
<defs>
<linearGradient id="paint0_linear_531_821" x1="765.505" y1="240.615" x2="-0.0998008" y2="240.615" gradientUnits="userSpaceOnUse">
<stop stop-color="#0D2731"/>
<stop offset="1" stop-color="#88AEDB"/>
</linearGradient>
</defs>
</svg>
